<mxfile host="app.diagrams.net" agent="Mozilla/5.0 (Windows NT 10.0; Win64; x64) AppleWebKit/537.36 (KHTML, like Gecko) Chrome/131.0.0.0 Safari/537.36" version="24.9.1">
  <diagram name="PÃ¡gina-1" id="c4ne2iOf3eu7SbIU-ENp">
    <mxGraphModel dx="1434" dy="780" grid="1" gridSize="10" guides="1" tooltips="1" connect="1" arrows="1" fold="1" page="1" pageScale="1" pageWidth="827" pageHeight="1169" math="0" shadow="0">
      <root>
        <mxCell id="0" />
        <mxCell id="1" parent="0" />
        <mxCell id="l5DM9ZdZHCuwQmuX6HZj-2" value="Manejo Fichas" style="strokeWidth=1;shadow=0;dashed=0;align=center;html=1;shape=mxgraph.mockup.containers.window;align=left;verticalAlign=top;spacingLeft=8;strokeColor2=#008cff;strokeColor3=#c4c4c4;fontColor=#ffffff;mainText=;fontSize=17;labelBackgroundColor=none;whiteSpace=wrap;fillColor=#1ba1e2;strokeColor=#006EAF;" vertex="1" parent="1">
          <mxGeometry x="60" y="190" width="1020" height="760" as="geometry" />
        </mxCell>
        <mxCell id="l5DM9ZdZHCuwQmuX6HZj-3" value="Ingresar Nueva Ficha" style="strokeWidth=1;shadow=0;dashed=0;align=center;html=1;shape=mxgraph.mockup.buttons.button;mainText=;buttonStyle=round;fontSize=17;fontStyle=1;whiteSpace=wrap;" vertex="1" parent="1">
          <mxGeometry x="230" y="420" width="220" height="90" as="geometry" />
        </mxCell>
        <mxCell id="l5DM9ZdZHCuwQmuX6HZj-4" value="Eliminar Ficha" style="strokeWidth=1;shadow=0;dashed=0;align=center;html=1;shape=mxgraph.mockup.buttons.button;mainText=;buttonStyle=round;fontSize=17;fontStyle=1;whiteSpace=wrap;" vertex="1" parent="1">
          <mxGeometry x="460" y="710" width="220" height="90" as="geometry" />
        </mxCell>
        <mxCell id="l5DM9ZdZHCuwQmuX6HZj-5" value="Modificar Ficha" style="strokeWidth=1;shadow=0;dashed=0;align=center;html=1;shape=mxgraph.mockup.buttons.button;mainText=;buttonStyle=round;fontSize=17;fontStyle=1;whiteSpace=wrap;" vertex="1" parent="1">
          <mxGeometry x="680" y="420" width="220" height="90" as="geometry" />
        </mxCell>
      </root>
    </mxGraphModel>
  </diagram>
</mxfile>
